
<svg id="Component_17_1" data-name="Component 17 – 1" xmlns="http://www.w3.org/2000/svg" width="250" height="250" viewBox="0 0 250 250">
  <g id="peanut" transform="translate(60.765 56)">
    <path id="Path_75" data-name="Path 75" d="M294.755,88.158a48.571,48.571,0,0,1,.685-28,52.559,52.559,0,0,0,.978-24.951C292.209,13.229,276.473-2.394,261.268.3s-24.113,22.733-19.9,44.709q.552,2.885,1.364,5.619a48.571,48.571,0,0,1-.684,28,52.56,52.56,0,0,0-.979,24.951c4.209,21.986,19.945,37.616,35.149,34.912s24.114-22.733,19.9-44.709A55.187,55.187,0,0,0,294.755,88.158Zm0,0" transform="translate(-168.213 0)" fill="#d6a856"/>
    <path id="Path_76" data-name="Path 76" d="M54.755,88.158a48.571,48.571,0,0,1,.685-28,52.559,52.559,0,0,0,.978-24.951C52.209,13.229,36.473-2.394,21.268.3S-2.844,23.026,1.364,45.012q.552,2.885,1.364,5.619a48.571,48.571,0,0,1-.684,28,52.56,52.56,0,0,0-.979,24.951c4.209,21.979,19.945,37.6,35.149,34.905s24.114-22.733,19.9-44.709A55.5,55.5,0,0,0,54.755,88.158Zm0,0" transform="translate(0 0)" fill="#d6a856"/>
    <path id="Path_77" data-name="Path 77" d="M57.464,94.815a57.808,57.808,0,0,0-2.8-9.78A118.146,118.146,0,0,1,1.5,159.194c.16,1.318.354,2.632.608,3.977,4.209,21.986,19.945,37.609,35.149,34.912s24.114-22.733,19.9-44.709a57.573,57.573,0,0,0-1.366-5.617,48.6,48.6,0,0,1,.687-28A52.554,52.554,0,0,0,57.464,94.815Zm0,0" transform="translate(-1.046 -59.6)" fill="#c98309"/>
    <path id="Path_78" data-name="Path 78" d="M45.466,42.932a4,4,0,0,0-5.14-.287C33.6,47.852,30.442,60.491,33.148,74.2c3.308,16.726,14.09,28.681,24.085,26.708,8.338-1.649,11.8-11.334,12.75-18.732,1.13-8.868.283-19.684-4.414-27.533-4.434-7.4-12.092-5.788-18.28-10.373C46.7,43.827,46.092,43.348,45.466,42.932Zm0,0" transform="translate(-22.547 -29.33)" fill="#f3c992"/>
    <path id="Path_79" data-name="Path 79" d="M63.1,83.344l-4.683-.958a23.175,23.175,0,0,1,1.657-5.125L64.4,79.3A18.71,18.71,0,0,0,63.1,83.344Zm0,0" transform="translate(-40.934 -54.152)" fill="#d98955"/>
    <path id="Path_80" data-name="Path 80" d="M63.557,137.118a36.96,36.96,0,0,1-6.563-15.4,42.223,42.223,0,0,1-.805-10.086l4.786.22a37.3,37.3,0,0,0,.719,8.937,33.119,33.119,0,0,0,5.671,13.432Zm0,0" transform="translate(-39.35 -78.239)" fill="#d98955"/>
    <path id="Path_81" data-name="Path 81" d="M45.466,226.932a4,4,0,0,0-5.14-.287c-6.729,5.208-9.885,17.846-7.179,31.551,3.308,16.726,14.09,28.681,24.085,26.708,8.338-1.649,11.8-11.334,12.75-18.732,1.13-8.868.283-19.684-4.414-27.533-4.434-7.4-12.092-5.788-18.28-10.373C46.7,227.827,46.092,227.348,45.466,226.932Zm0,0" transform="translate(-22.547 -158.293)" fill="#f3c992"/>
    <path id="Path_82" data-name="Path 82" d="M63.1,267.344l-4.683-.958a23.175,23.175,0,0,1,1.657-5.125L64.4,263.3A18.71,18.71,0,0,0,63.1,267.344Zm0,0" transform="translate(-40.934 -183.115)" fill="#d98955"/>
    <path id="Path_83" data-name="Path 83" d="M63.557,321.118a36.96,36.96,0,0,1-6.563-15.4,42.223,42.223,0,0,1-.805-10.086l4.786.22a37.3,37.3,0,0,0,.719,8.937,33.119,33.119,0,0,0,5.671,13.432Zm0,0" transform="translate(-39.35 -207.202)" fill="#d98955"/>
    <path id="Path_84" data-name="Path 84" d="M297.464,94.815a57.807,57.807,0,0,0-2.8-9.78A118.146,118.146,0,0,1,241.5,159.194c.16,1.318.354,2.632.608,3.977,4.209,21.986,19.945,37.616,35.149,34.912s24.114-22.733,19.9-44.709a57.738,57.738,0,0,0-1.366-5.619,48.6,48.6,0,0,1,.687-28A52.56,52.56,0,0,0,297.464,94.815Zm0,0" transform="translate(-169.259 -59.6)" fill="#c98309"/>
    <g id="Group_243" data-name="Group 243" transform="translate(81.381 12.192)">
      <path id="Path_85" data-name="Path 85" d="M278.378,287.454a2.394,2.394,0,0,0-1.55,3.006c.328,1.028.685,1.98,1.041,2.928a31.793,31.793,0,0,1,1.706,5.58,2.394,2.394,0,0,0,2.349,1.941,2.288,2.288,0,0,0,.455-.046,2.392,2.392,0,0,0,1.9-2.8,36.6,36.6,0,0,0-1.915-6.36c-.332-.876-.662-1.75-.957-2.7a2.38,2.38,0,0,0-3.023-1.548Zm0,0" transform="translate(-275.319 -213.58)" fill="#d98955"/>
      <path id="Path_86" data-name="Path 86" d="M288.306,166.395h-.053a2.394,2.394,0,0,0-2.34,2.434v.907a30.215,30.215,0,0,1-.84,7.622,2.393,2.393,0,1,0,4.637,1.182,34.833,34.833,0,0,0,.988-8.793V168.73A2.393,2.393,0,0,0,288.306,166.395Zm0,0" transform="translate(-281.123 -128.816)" fill="#d98955"/>
      <path id="Path_87" data-name="Path 87" d="M274.445,240.254h.043a2.393,2.393,0,0,0,2.35-2.436v-.735a30.134,30.134,0,0,1,.881-7.779,2.393,2.393,0,1,0-4.63-1.21,34.79,34.79,0,0,0-1.036,8.99v.824A2.394,2.394,0,0,0,274.445,240.254Zm0,0" transform="translate(-272.048 -170.806)" fill="#d98955"/>
      <path id="Path_88" data-name="Path 88" d="M285.941,347.515a2.393,2.393,0,0,0-2.523,2.254,26.421,26.421,0,0,1-1.747,8.327,2.393,2.393,0,0,0,1.423,3.071,2.364,2.364,0,0,0,.824.146,2.392,2.392,0,0,0,2.245-1.57,31.1,31.1,0,0,0,2.032-9.693,2.394,2.394,0,0,0-2.254-2.534Zm0,0" transform="translate(-278.69 -255.757)" fill="#d98955"/>
      <path id="Path_89" data-name="Path 89" d="M274.591,59.443h.148a2.393,2.393,0,0,0,2.393-2.247,26.71,26.71,0,0,1,1.8-8.325,2.394,2.394,0,0,0-4.491-1.661,31.528,31.528,0,0,0-2.087,9.692A2.394,2.394,0,0,0,274.591,59.443Zm0,0" transform="translate(-272.26 -44.184)" fill="#d98955"/>
      <path id="Path_90" data-name="Path 90" d="M275.825,106.627a2.394,2.394,0,0,0-1.914,2.793,36.527,36.527,0,0,0,1.959,6.545c.313.827.625,1.658.915,2.546a2.393,2.393,0,0,0,4.546-1.479c-.314-.957-.651-1.859-.988-2.756a31.768,31.768,0,0,1-1.733-5.744A2.411,2.411,0,0,0,275.825,106.627Zm0,0" transform="translate(-273.325 -86.899)" fill="#d98955"/>
      <path id="Path_91" data-name="Path 91" d="M326.277,306.438a2.394,2.394,0,0,0-1.618,2.97c.311,1.067.651,2.06.993,3.053a37.766,37.766,0,0,1,1.747,6.377,2.394,2.394,0,0,0,2.357,1.993,2.56,2.56,0,0,0,.4-.034,2.392,2.392,0,0,0,1.963-2.759,42.2,42.2,0,0,0-1.943-7.133c-.319-.927-.634-1.85-.929-2.849A2.392,2.392,0,0,0,326.277,306.438Zm0,0" transform="translate(-308.854 -226.901)" fill="#d98955"/>
      <path id="Path_92" data-name="Path 92" d="M322.542,55.435h.153a2.392,2.392,0,0,0,2.393-2.24A32.3,32.3,0,0,1,327,43.932a2.394,2.394,0,1,0-4.53-1.553A37.235,37.235,0,0,0,320.3,52.891a2.392,2.392,0,0,0,2.242,2.544Zm0,0" transform="translate(-305.864 -40.76)" fill="#d98955"/>
      <path id="Path_93" data-name="Path 93" d="M323.644,107.618a2.394,2.394,0,0,0-1.982,2.742,41.458,41.458,0,0,0,1.984,7.382c.294.862.589,1.721.863,2.632a2.392,2.392,0,0,0,2.292,1.7,2.428,2.428,0,0,0,.692-.1A2.392,2.392,0,0,0,329.1,119c-.294-.976-.608-1.893-.921-2.811a36.769,36.769,0,0,1-1.785-6.59A2.392,2.392,0,0,0,323.644,107.618Zm0,0" transform="translate(-306.801 -87.598)" fill="#d98955"/>
      <path id="Path_94" data-name="Path 94" d="M336.105,173.41a2.394,2.394,0,0,0-2.347,2.436l.012,1.1a36.419,36.419,0,0,1-.845,8.375,2.394,2.394,0,0,0,1.792,2.872,2.434,2.434,0,0,0,.543.06,2.393,2.393,0,0,0,2.329-1.852,41.146,41.146,0,0,0,.957-9.447l-.012-1.2A2.475,2.475,0,0,0,336.105,173.41Zm0,0" transform="translate(-314.672 -133.733)" fill="#d98955"/>
      <path id="Path_95" data-name="Path 95" d="M322.216,254.072h.036a2.393,2.393,0,0,0,2.357-2.429v-.893a36.491,36.491,0,0,1,.89-8.567,2.393,2.393,0,1,0-4.655-1.11,41.007,41.007,0,0,0-1.021,9.674v.969A2.393,2.393,0,0,0,322.216,254.072Zm0,0" transform="translate(-305.53 -179.835)" fill="#d98955"/>
      <path id="Path_96" data-name="Path 96" d="M333.317,372.54a2.413,2.413,0,0,0-2.526,2.249,31.713,31.713,0,0,1-1.862,9.259,2.393,2.393,0,0,0,1.491,3.037,2.293,2.293,0,0,0,.774.13,2.4,2.4,0,0,0,2.263-1.621,36.317,36.317,0,0,0,2.11-10.529A2.393,2.393,0,0,0,333.317,372.54Zm0,0" transform="translate(-311.825 -273.298)" fill="#d98955"/>
      <path id="Path_97" data-name="Path 97" d="M370.606,76.253h.148a2.393,2.393,0,0,0,2.393-2.245,27.386,27.386,0,0,1,1.826-8.512,2.394,2.394,0,0,0-4.5-1.642,32.045,32.045,0,0,0-2.105,9.857A2.393,2.393,0,0,0,370.606,76.253Zm0,0" transform="translate(-339.556 -55.845)" fill="#d98955"/>
      <path id="Path_98" data-name="Path 98" d="M374.581,126.361a2.394,2.394,0,1,0-4.711.854,37.28,37.28,0,0,0,1.976,6.741c.308.828.616,1.653.9,2.541a2.393,2.393,0,0,0,4.559-1.455c-.308-.957-.639-1.845-.97-2.738A32.706,32.706,0,0,1,374.581,126.361Zm0,0" transform="translate(-340.583 -99.378)" fill="#d98955"/>
      <path id="Path_99" data-name="Path 99" d="M370.446,260.676h.043a2.393,2.393,0,0,0,2.35-2.436v-.749a31.339,31.339,0,0,1,.883-7.955,2.394,2.394,0,0,0-4.635-1.2,36.136,36.136,0,0,0-1.034,9.151v.833A2.394,2.394,0,0,0,370.446,260.676Zm0,0" transform="translate(-339.333 -184.992)" fill="#d98955"/>
      <path id="Path_100" data-name="Path 100" d="M374.392,308.9a2.393,2.393,0,0,0-1.566,3c.328,1.046.685,2.01,1.041,2.979a32.976,32.976,0,0,1,1.716,5.719,2.393,2.393,0,1,0,4.7-.893,37.6,37.6,0,0,0-1.929-6.492c-.329-.89-.66-1.783-.957-2.748a2.393,2.393,0,0,0-3.008-1.567Zm0,0" transform="translate(-342.605 -228.618)" fill="#d98955"/>
      <path id="Path_101" data-name="Path 101" d="M384.355,185.395h-.05a2.394,2.394,0,0,0-2.343,2.454l.012.957a31.5,31.5,0,0,1-.837,7.762,2.392,2.392,0,0,0,1.747,2.9,2.6,2.6,0,0,0,.578.069,2.393,2.393,0,0,0,2.322-1.816,36.332,36.332,0,0,0,.964-8.943v-1.043A2.393,2.393,0,0,0,384.355,185.395Zm0,0" transform="translate(-348.457 -142.132)" fill="#d98955"/>
      <path id="Path_102" data-name="Path 102" d="M381.905,370.173a2.407,2.407,0,0,0-2.521,2.254,27.524,27.524,0,0,1-1.763,8.519,2.394,2.394,0,1,0,4.505,1.618,32.282,32.282,0,0,0,2.034-9.866A2.393,2.393,0,0,0,381.905,370.173Zm0,0" transform="translate(-345.943 -271.639)" fill="#d98955"/>
    </g>
  </g>
  <g id="Icon_material-do-not-disturb-alt" data-name="Icon material-do-not-disturb-alt">
    <path id="Icon_material-do-not-disturb-alt-2" data-name="Icon material-do-not-disturb-alt" d="M128,3C59.25,3,3,59.25,3,128S59.25,253,128,253s125-56.25,125-125S196.75,3,128,3ZM28,128C28,73,73,28,128,28a98.512,98.512,0,0,1,61.25,21.25l-140,140A98.512,98.512,0,0,1,28,128ZM128,228a98.512,98.512,0,0,1-61.25-21.25l140-140A98.512,98.512,0,0,1,228,128C228,183,183,228,128,228Z" transform="translate(-3 -3)" fill="#f25260"/>
  </g>
</svg>

