<svg id="Component_22_1" data-name="Component 22 – 1" xmlns="http://www.w3.org/2000/svg" width="250" height="250" viewBox="0 0 250 250">
  <g id="farming-and-gardening" transform="translate(34 46.877)">
    <path id="Path_145" data-name="Path 145" d="M104.2,80.355a34.586,34.586,0,1,1-69.172,0c0-19.1,15.485-52.99,34.587-52.99S104.2,61.253,104.2,80.355Z" transform="translate(11.549 2.717)" fill="#ffd4ba"/>
    <path id="Path_146" data-name="Path 146" d="M92.651,80.355c0-19.1-15.485-52.99-34.586-52.99V114.94A34.586,34.586,0,0,0,92.651,80.355Z" transform="translate(23.1 2.717)" fill="#ffb698"/>
    <path id="Path_147" data-name="Path 147" d="M139.1,74.937a34.586,34.586,0,0,1-69.173,0c0-18.2,14.054-49.819,31.921-52.762a15.792,15.792,0,0,1,2.673-.225,15.094,15.094,0,0,1,2.613.225C125.019,25.043,139.1,56.724,139.1,74.937Z" transform="translate(29.05 0.002)" fill="#ffd4ba"/>
    <path id="Path_148" data-name="Path 148" d="M127.551,74.936c0-19.1-15.485-52.99-34.586-52.99v87.575a34.586,34.586,0,0,0,34.586-34.585Z" transform="translate(40.602)" fill="#ffb698"/>
    <path id="Path_149" data-name="Path 149" d="M81.171,87.856a34.586,34.586,0,1,1-69.172,0c0-19.1,15.485-52.99,34.587-52.99S81.171,68.756,81.171,87.856Z" transform="translate(0 6.479)" fill="#ffd4ba"/>
    <path id="Path_150" data-name="Path 150" d="M69.62,87.856c0-19.1-15.485-52.99-34.586-52.99v87.576A34.586,34.586,0,0,0,69.62,87.856Z" transform="translate(11.551 6.479)" fill="#ffb698"/>
    <path id="Path_151" data-name="Path 151" d="M118.815,100.717a34.586,34.586,0,1,1-69.172,0c0-19.1,15.485-52.99,34.587-52.99S118.815,81.62,118.815,100.717Z" transform="translate(18.877 12.928)" fill="#e7ffff"/>
    <path id="Path_152" data-name="Path 152" d="M107.754,48.256V62.535a2.628,2.628,0,1,1-5.255,0V49.292l-2.718-2.883-8.874,8.363a2.676,2.676,0,0,1-1.8.706,2.584,2.584,0,0,1-1.907-.826,2.629,2.629,0,0,1,.105-3.709L96.177,42.6l-3.423-3.649a2.629,2.629,0,0,1-.706-2.072l1.5-14.7a15.792,15.792,0,0,1,2.673-.225,15.094,15.094,0,0,1,2.613.225v.03L97.394,36.214l9.654,10.24a2.637,2.637,0,0,1,.706,1.8Z" transform="translate(37.352 0.002)" fill="#e7ffff"/>
    <circle id="Ellipse_8" data-name="Ellipse 8" cx="16.168" cy="16.168" r="16.168" transform="translate(86.939 97.44)" fill="#fed943"/>
    <path id="Path_153" data-name="Path 153" d="M33.011,46.171a2.629,2.629,0,0,0-3.715.084,51.094,51.094,0,0,0-9.91,16.286,2.628,2.628,0,1,0,4.89,1.923A45.8,45.8,0,0,1,33.1,49.886a2.628,2.628,0,0,0-.09-3.715Z" transform="translate(3.613 11.783)" fill="#e7ffff"/>
    <path id="Path_154" data-name="Path 154" d="M107.264,100.717c0-19.1-15.485-52.99-34.586-52.99V135.3a34.586,34.586,0,0,0,34.586-34.585Z" transform="translate(30.428 12.928)" fill="#cce8f7"/>
    <path id="Path_155" data-name="Path 155" d="M88.846,88.394A16.168,16.168,0,0,0,72.678,72.226v32.336A16.168,16.168,0,0,0,88.846,88.394Z" transform="translate(30.428 25.214)" fill="#fbbe2c"/>
  </g>
  <path id="Icon_material-do-not-disturb-alt" data-name="Icon material-do-not-disturb-alt" d="M128,3C59.25,3,3,59.25,3,128S59.25,253,128,253s125-56.25,125-125S196.75,3,128,3ZM28,128C28,73,73,28,128,28a98.512,98.512,0,0,1,61.25,21.25l-140,140A98.512,98.512,0,0,1,28,128ZM128,228a98.512,98.512,0,0,1-61.25-21.25l140-140A98.512,98.512,0,0,1,228,128C228,183,183,228,128,228Z" transform="translate(-3 -3)" fill="#f25260"/>
</svg>

