<svg xmlns="http://www.w3.org/2000/svg" width="250" height="250" viewBox="0 0 250 250">
  <g id="Group_262" data-name="Group 262" transform="translate(-1104 -628)">
    <g id="Group_261" data-name="Group 261" transform="translate(-287 -281)">
      <rect id="Rectangle_79" data-name="Rectangle 79" width="250" height="250" transform="translate(1391 909)" fill="none"/>
    </g>
    <g id="fish_2_" data-name="fish (2)" transform="translate(1140.276 602.033)">
      <g id="Group_247" data-name="Group 247" transform="translate(36.593 155.284)">
        <path id="Path_122" data-name="Path 122" d="M281.816,366.194l-13.527.269-4.031,5.912,11.466,11.466A16.838,16.838,0,0,0,281.816,366.194Z" transform="translate(-209.122 -332.363)" fill="#ffb27a"/>
        <path id="Path_123" data-name="Path 123" d="M146.223,291.544c0,8.6-9.316,17.2-14.333,17.2-.239,0-2.867-8.6-8.6-14.333-8.6-8.6-12.541-10.033-17.871-22.395l4.016-3.285Z" transform="translate(-105.42 -268.731)" fill="#ffb27a"/>
      </g>
      <path id="Path_124" data-name="Path 124" d="M169.125,155.164l5.733-5.733c-2.867-8.6-22.574-34.4-57.331-34.4A107.3,107.3,0,0,0,97.6,117.111c-6.739-8.938-17.129-22.144-20.2-22.144-3.344,0-22.932,20.066-22.932,25.8,0,1.746,2.58,5.019,4.915,7.623-13.636,5.038-24.181,9.576-27.847,9.576-8.241,0-12.9-31.532-31.532-31.532C0,125.245,5.733,132.77,5.733,143.7v2.867C5.733,157.494,0,165.018,0,183.83c18.632,0,23.291-31.532,31.532-31.532s39.773,40.132,74.53,40.132c36.19,0,71.663-24.127,71.663-31.532C177.725,153.015,169.125,155.164,169.125,155.164Z" fill="#ada9a7"/>
      <path id="Path_125" data-name="Path 125" d="M179.283,307.861c16.289,0,32.422-4.892,45.252-10.943-7.177-4.1-13.72-11.989-13.72-11.989s-17.2,8.6-57.331,0C139.834,282,118.276,273.3,112.152,271.77,125.5,281.944,151.345,307.861,179.283,307.861Z" transform="translate(-73.222 -115.431)" fill="#d6ae90"/>
      <path id="Path_126" data-name="Path 126" d="M331.348,315.457l-11.466,5.733-14.333-5.733c8.122-6.689,22.932-5.733,22.932-5.733Z" transform="translate(-199.487 -140.18)" fill="#ffb27a"/>
      <circle id="Ellipse_1" data-name="Ellipse 1" cx="5.733" cy="5.733" r="5.733" transform="translate(151.926 143.698)" fill="#464655"/>
      <path id="Path_127" data-name="Path 127" d="M189.487,173.157a65.609,65.609,0,0,0-47.7-20.383c-34.757,0-77.755,22.932-86,22.932-1.887,0-3.587-1.656-5.309-4.206l0,0c-1.806-2.674-3.637-6.322-5.738-10.094-.293,3.225-1.832,6.129-3.546,9.333-1.988,3.715-4.042,7.558-4.042,12.138s2.055,8.423,4.042,12.138c1.713,3.2,3.253,6.108,3.546,9.333,2.1-3.772,3.931-7.42,5.738-10.094-.56-1.153-1.142-2.253-1.7-3.3-1.623-3.035-3.026-5.658-3.026-8.082a12.4,12.4,0,0,1,1.539-5.213c3.517,4.453,9.408,8,19.96,3.78,11.9-4.761,70.733-11.932,88.863-2.867a27.277,27.277,0,0,0,2.572,1.109,31.516,31.516,0,0,0-2.572,12.482,32.566,32.566,0,0,0,16.689,28.325c2.3-1.015,4.508-2.069,6.6-3.151a27.139,27.139,0,0,1-17.56-25.175,25.954,25.954,0,0,1,2.459-11.01C173.8,182.647,183.707,179.445,189.487,173.157Z" transform="translate(-24.262 -37.741)" fill="#8c888a"/>
    </g>
  </g>
</svg>
