<svg xmlns="http://www.w3.org/2000/svg" width="250" height="250" viewBox="0 0 250 250">
  <g id="Group_259" data-name="Group 259" transform="translate(-805 -930)">
    <rect id="Rectangle_80" data-name="Rectangle 80" width="250" height="250" transform="translate(805 930)" fill="none"/>
    <g id="Group_253" data-name="Group 253" transform="translate(804 361)">
      <g id="animals" transform="translate(104.995 683)">
        <path id="Path_103" data-name="Path 103" d="M190.317,365.97H165.132a9.949,9.949,0,0,1-9.871-9.13l-.713-9.122a3.428,3.428,0,0,1,3.418-3.695h39.518a3.428,3.428,0,0,1,3.418,3.695l-.712,9.122A9.95,9.95,0,0,1,190.317,365.97Zm0,0" transform="translate(-119.221 -265.404)" fill="#f3c992"/>
        <path id="Path_104" data-name="Path 104" d="M278.275,345.123a3.426,3.426,0,0,0-2.517-1.1H256V365.97h12.592a9.95,9.95,0,0,0,9.872-9.13l.712-9.122A3.43,3.43,0,0,0,278.275,345.123Zm0,0" transform="translate(-197.497 -265.404)" fill="#eebb75"/>
        <path id="Path_105" data-name="Path 105" d="M78.262,85.477H38.744a3.423,3.423,0,0,1-1.621-.408c-.329-.177-8.154-4.386-16.482-9.641C4.85,65.463,1.737,60.894.769,58.324-1.55,52.171,1.9,42.619,4.155,37.473,7.673,29.464,12.774,21.72,17.8,16.76A57.931,57.931,0,0,1,58.49,0h.025A57.932,57.932,0,0,1,99.2,16.759h0c5.028,4.961,10.129,12.7,13.647,20.714,2.26,5.146,5.705,14.7,3.387,20.851-.968,2.57-4.081,7.14-19.872,17.1-8.328,5.255-16.152,9.464-16.481,9.641A3.43,3.43,0,0,1,78.262,85.477Zm0,0" transform="translate(0)" fill="#f4d7af"/>
        <path id="Path_106" data-name="Path 106" d="M310.347,37.474C306.83,29.464,301.728,21.72,296.7,16.76h0A57.932,57.932,0,0,0,256.012,0H256V85.477h19.759a3.423,3.423,0,0,0,1.621-.408c.329-.177,8.154-4.386,16.482-9.641,15.791-9.964,18.9-14.533,19.871-17.1C316.053,52.171,312.608,42.619,310.347,37.474Zm0,0" transform="translate(-197.497)" fill="#f3c992"/>
        <path id="Path_107" data-name="Path 107" d="M125.849,28.667,86.6,76.657,109.19,10.449A57.95,57.95,0,0,0,103.2,6.777L79.492,76.263V.115C78.359.046,77.221,0,76.076,0h-.025c-1.144,0-2.283.046-3.415.115V76.263L48.93,6.777a57.867,57.867,0,0,0-5.993,3.672L65.526,76.66,26.279,28.667c-1.261,2.1-2.446,4.295-3.517,6.531L63.878,85.477H88.247L129.366,35.2C128.295,32.962,127.11,30.767,125.849,28.667Zm0,0" transform="translate(-17.561 0)" fill="#f5a96c"/>
        <path id="Path_108" data-name="Path 108" d="M309.3,35.2c-1.071-2.236-2.256-4.431-3.517-6.531l-39.246,47.99,22.587-66.208a57.95,57.95,0,0,0-5.992-3.672L259.428,76.263V.115C258.3.046,257.157,0,256.012,0H256V85.477h12.184Zm0,0" transform="translate(-197.497 0)" fill="#d98955"/>
      </g>
      <g id="shrimp_1_" data-name="shrimp (1)" transform="translate(12.51 603.968)">
        <g id="Group_244" data-name="Group 244" transform="translate(38.243 40.873)">
          <path id="Path_109" data-name="Path 109" d="M128.006,314.229a1.891,1.891,0,0,1-1.342-.556l-3.472-3.471a5.734,5.734,0,0,0-4.027-1.669h-4.449a1.9,1.9,0,1,1,0-3.8h4.449a9.432,9.432,0,0,1,6.712,2.781l3.472,3.471a1.9,1.9,0,0,1-1.342,3.241Z" transform="translate(-112.818 -278.159)" fill="#fb7b76"/>
          <path id="Path_110" data-name="Path 110" d="M129.9,279.516a1.89,1.89,0,0,1-1.249-.469l-3.968-3.471a7.488,7.488,0,0,0-4.887-1.756h-5.084a1.9,1.9,0,1,1,0-3.8H119.8a11.181,11.181,0,0,1,7.387,2.694l3.967,3.471a1.9,1.9,0,0,1-1.251,3.328Z" transform="translate(-112.819 -251.04)" fill="#fb7b76"/>
          <path id="Path_111" data-name="Path 111" d="M126.11,348.941a1.9,1.9,0,0,1-1.442-.662l-2.976-3.471a4.168,4.168,0,0,0-3.161-1.563h-3.813a1.9,1.9,0,1,1,0-3.8h3.813a8.019,8.019,0,0,1,6.044,2.887l2.976,3.471a1.9,1.9,0,0,1-1.441,3.135Z" transform="translate(-112.819 -305.277)" fill="#fb7b76"/>
          <path id="Path_112" data-name="Path 112" d="M166.53,207.933a1.9,1.9,0,0,1-1.876-1.63l-1.336-9.35a5.7,5.7,0,0,0-3.092-4.29l-11.63-5.814a1.9,1.9,0,0,1,1.7-3.4l11.63,5.814a9.492,9.492,0,0,1,5.152,7.149l1.336,9.35a1.895,1.895,0,0,1-1.882,2.167Z" transform="translate(-139.953 -183.254)" fill="#fb7b76"/>
        </g>
        <path id="Path_113" data-name="Path 113" d="M62.925,156.948l3.8-1.9v11.391l-3.8-1.9c-23.371,0-42.66-16.688-45.261-38.2a39.4,39.4,0,0,1-.3-4.993v-.114a41.635,41.635,0,0,1,1.614-11.353v-.019a41.317,41.317,0,0,1,1.4-3.987,42.619,42.619,0,0,1,6.094-10.442c.835-1.044,1.709-2.069,2.639-3.038a46.135,46.135,0,0,1,24.32-13.29h1.9c-.209.55,4.462,15.815,7.594,20.884l-5.7.722c-9.815,2.449-17.087,10.328-17.087,26.845C40.143,145.937,50.357,156.948,62.925,156.948Z" transform="translate(-0.001 -61.02)" fill="#d75e72"/>
        <path id="Path_114" data-name="Path 114" d="M239.2,75.044,193.327,89.8a5.717,5.717,0,0,1-5.449-2.487l-.209-.342c-.228-.342-.437-.665-.646-1.006a32.122,32.122,0,0,1-4.784-16.9V67.45a5.038,5.038,0,0,1,.3-1.785,5.655,5.655,0,0,1,5.392-3.911H235.4l-11.391,9.493Z" transform="translate(-128.808 -47.463)" fill="#fb7b76"/>
        <path id="Path_115" data-name="Path 115" d="M305.632,91.594a1.881,1.881,0,0,1-1.747-2.62,2.183,2.183,0,0,1,.4-.627,1.894,1.894,0,0,1,2.069-.4,1.71,1.71,0,0,1,1.025,1.025,1.593,1.593,0,0,1,.152.722,1.864,1.864,0,0,1-.133.721,2.809,2.809,0,0,1-.417.627,1.886,1.886,0,0,1-1.348.55Z" transform="translate(-223.722 -67.81)" fill="#2c2f38"/>
        <g id="Group_245" data-name="Group 245" transform="translate(62.925 1)">
          <path id="Path_116" data-name="Path 116" d="M245.738,408.884a1.9,1.9,0,0,1-.418,1.188l-5.069,6.314a4.24,4.24,0,0,1-6.588.266l-8.031-8.05v-7.594l8.031-8.05a4.24,4.24,0,0,1,6.588.266l5.069,6.314a1.9,1.9,0,0,1,.418,1.188Z" transform="translate(-225.633 -306.08)" fill="#df4d60"/>
          <path id="Path_117" data-name="Path 117" d="M285.387,52.262a26.1,26.1,0,0,1-24.946-17.725,1.9,1.9,0,1,1,3.6-1.194,22.51,22.51,0,0,0,43.763-6.712A22.159,22.159,0,0,0,285.387,4.8h-15.55a1.9,1.9,0,1,1,0-3.8h15.55A25.958,25.958,0,0,1,311.6,26.632a25.957,25.957,0,0,1-26.218,25.63Z" transform="translate(-252.75 -1)" fill="#df4d60"/>
        </g>
        <g id="Group_246" data-name="Group 246" transform="translate(17.359 31.378)">
          <path id="Path_118" data-name="Path 118" d="M68.793,147.638a1.909,1.909,0,0,1-1.8,1.31,2.362,2.362,0,0,1-.608-.095,14.013,14.013,0,0,1-7.366-5.961c.835-1.044,1.709-2.069,2.639-3.038a10.717,10.717,0,0,0,5.942,5.392A1.9,1.9,0,0,1,68.793,147.638Z" transform="translate(-49.902 -139.854)" fill="#802d40"/>
          <path id="Path_119" data-name="Path 119" d="M35.369,207.449a1.891,1.891,0,0,1-1.88,1.785h-.114a14.087,14.087,0,0,1-8.638-3.759v-.019a41.316,41.316,0,0,1,1.4-3.987l1.671,1.633a9.991,9.991,0,0,0,5.772,2.335,1.908,1.908,0,0,1,1.785,2.012Z" transform="translate(-23.123 -187.989)" fill="#802d40"/>
          <path id="Path_120" data-name="Path 120" d="M27.061,276.969a1.892,1.892,0,0,1-1.861,1.936h-.285a13.884,13.884,0,0,1-7.252-2.126,39.4,39.4,0,0,1-.3-4.993v-.114a10.981,10.981,0,0,0,7.575,3.437h.228A1.884,1.884,0,0,1,27.061,276.969Z" transform="translate(-17.359 -242.833)" fill="#802d40"/>
        </g>
        <path id="Path_121" data-name="Path 121" d="M248.415,433.564c0,1.044-.3,2.032-2.753,4.613a5.249,5.249,0,0,1-2.487.627,3.382,3.382,0,0,1-.437-.019l-17.106-1.424v-7.594l17.106-1.424a5.416,5.416,0,0,1,2.924.608,5.216,5.216,0,0,1,2.753,4.613Z" transform="translate(-162.708 -333.838)" fill="#fb7b76"/>
      </g>
    </g>
  </g>
</svg>
