<svg xmlns="http://www.w3.org/2000/svg" width="250" height="250" viewBox="0 0 250 250">
  <g id="Group_257" data-name="Group 257" transform="translate(-1391 -909)">
    <rect id="Rectangle_79" data-name="Rectangle 79" width="250" height="250" transform="translate(1391 909)" fill="none"/>
    <g id="wheat" transform="translate(1397.302 944)">
      <path id="Path_43" data-name="Path 43" d="M301.645,117.009l-4.72-3.219-6.438,9.44-4.72-3.219-30.581,44.841,4.72,3.219L239.14,198.326a42.85,42.85,0,0,0-7.521,24.248V250.9a2.857,2.857,0,0,0,5.713,0V222.769a37.136,37.136,0,0,1,6.456-20.924l20.838-30.555,4.72,3.219,30.581-44.841-4.72-3.219Z" transform="translate(-121.219 -73.793)" fill="#ffe07d"/>
      <path id="Path_44" data-name="Path 44" d="M410.154,85.416a7.155,7.155,0,0,0,2.063,10.074,7.382,7.382,0,0,0,10.094-2.573c2.659-4.461,2.3-10.76,1.95-13.619a1.391,1.391,0,0,0-1.732-1.179c-2.915.745-9.317,2.825-12.376,7.3Z" transform="translate(-236.189 -50.631)" fill="#ffe07d"/>
      <path id="Path_45" data-name="Path 45" d="M415,126.392a7.156,7.156,0,0,0-5.664,8.582,7.381,7.381,0,0,0,8.957,5.318c5.034-1.273,9.232-5.985,11.01-8.251a1.391,1.391,0,0,0-.391-2.058c-2.588-1.535-8.586-4.591-13.911-3.591Z" transform="translate(-236.358 -81.838)" fill="#fff0af"/>
      <path id="Path_46" data-name="Path 46" d="M391.991,160.132a7.156,7.156,0,0,0-5.664,8.582,7.381,7.381,0,0,0,8.957,5.318c5.035-1.273,9.232-5.985,11.01-8.251a1.391,1.391,0,0,0-.391-2.058C403.315,162.188,397.317,159.133,391.991,160.132Z" transform="translate(-221.436 -103.718)" fill="#ffe07d"/>
      <path id="Path_47" data-name="Path 47" d="M369.211,193.534a7.156,7.156,0,0,0-5.664,8.582,7.382,7.382,0,0,0,8.957,5.318c5.034-1.273,9.232-5.985,11.01-8.251a1.391,1.391,0,0,0-.391-2.058C380.535,195.59,374.537,192.535,369.211,193.534Z" transform="translate(-206.664 -125.38)" fill="#fff0af"/>
      <path id="Path_48" data-name="Path 48" d="M346.316,227.105a7.156,7.156,0,0,0-5.664,8.582,7.382,7.382,0,0,0,8.957,5.318c5.034-1.273,9.232-5.985,11.01-8.251a1.391,1.391,0,0,0-.391-2.058C357.64,229.161,351.642,226.106,346.316,227.105Z" transform="translate(-191.816 -147.15)" fill="#ffe07d"/>
      <path id="Path_49" data-name="Path 49" d="M323.34,260.8a7.156,7.156,0,0,0-5.664,8.582,7.381,7.381,0,0,0,8.957,5.318c5.034-1.273,9.232-5.985,11.01-8.251a1.391,1.391,0,0,0-.391-2.058C334.664,262.852,328.666,259.8,323.34,260.8Z" transform="translate(-176.916 -168.999)" fill="#fff0af"/>
      <path id="Path_50" data-name="Path 50" d="M380.525,111.147a7.156,7.156,0,0,1-5.922,8.407,7.382,7.382,0,0,1-8.221-6.4c-.652-5.152,2.2-10.78,3.662-13.262a1.391,1.391,0,0,1,2.058-.387c2.374,1.849,7.409,6.316,8.423,11.639Z" transform="translate(-208.551 -64.338)" fill="#ffe07d"/>
      <path id="Path_51" data-name="Path 51" d="M357.515,144.887a7.156,7.156,0,0,1-5.922,8.407,7.382,7.382,0,0,1-8.221-6.4c-.652-5.152,2.2-10.78,3.662-13.262a1.391,1.391,0,0,1,2.058-.387C351.467,135.1,356.5,139.564,357.515,144.887Z" transform="translate(-193.629 -86.218)" fill="#ffd064"/>
      <path id="Path_52" data-name="Path 52" d="M334.735,178.289a7.156,7.156,0,0,1-5.922,8.407,7.382,7.382,0,0,1-8.221-6.4c-.652-5.152,2.2-10.78,3.662-13.262a1.391,1.391,0,0,1,2.058-.387C328.687,168.5,333.721,172.966,334.735,178.289Z" transform="translate(-178.856 -107.879)" fill="#ffe07d"/>
      <path id="Path_53" data-name="Path 53" d="M311.84,211.86a7.156,7.156,0,0,1-5.922,8.407,7.382,7.382,0,0,1-8.221-6.4c-.652-5.152,2.2-10.78,3.662-13.262a1.391,1.391,0,0,1,2.058-.387C305.792,202.069,310.826,206.537,311.84,211.86Z" transform="translate(-164.009 -129.65)" fill="#ffd064"/>
      <g id="Group_242" data-name="Group 242" transform="translate(49.206 0)">
        <path id="Path_54" data-name="Path 54" d="M288.863,245.55a7.156,7.156,0,0,1-5.922,8.407,7.382,7.382,0,0,1-8.221-6.4c-.652-5.152,2.2-10.78,3.662-13.262a1.391,1.391,0,0,1,2.058-.387C282.815,235.759,287.849,240.227,288.863,245.55Z" transform="translate(-198.314 -151.498)" fill="#ffe07d"/>
        <path id="Path_55" data-name="Path 55" d="M131.6,145.49,109.5,99.226l5.155-2.462L91.263,47.788,86.108,50.25,81.183,39.939,76.028,42.4l4.924,10.311L75.8,55.174l23.392,48.976,5.155-2.462L126.1,147.249a45.707,45.707,0,0,1,4.463,19.7v4.64a2.857,2.857,0,1,0,5.713,0v-5.421A47.964,47.964,0,0,0,131.6,145.49Z" transform="translate(-69.374 -25.901)" fill="#ffe07d"/>
        <path id="Path_56" data-name="Path 56" d="M58.8,15.386a7.155,7.155,0,0,0,9.746,3.28,7.382,7.382,0,0,0,2.85-10.019C68.873,4.106,63.245,1.253,60.6.114a1.391,1.391,0,0,0-1.889.9c-.822,2.895-2.242,9.474.087,14.367Z" transform="translate(-57.523 0)" fill="#ffe07d"/>
      </g>
      <path id="Path_57" data-name="Path 57" d="M91.1,27.05a7.156,7.156,0,0,0,4.572,9.211,7.382,7.382,0,0,0,9.1-5.07c1.43-4.992-.533-10.989-1.6-13.665a1.391,1.391,0,0,0-1.975-.7C98.569,18.295,92.912,21.943,91.1,27.05Z" transform="translate(-29.823 -10.797)" fill="#fff0af"/>
      <path id="Path_58" data-name="Path 58" d="M108.7,63.9a7.156,7.156,0,0,0,4.572,9.211,7.382,7.382,0,0,0,9.1-5.07c1.43-4.992-.533-10.989-1.6-13.665a1.391,1.391,0,0,0-1.975-.7C116.17,55.146,110.513,58.8,108.7,63.9Z" transform="translate(-41.237 -34.696)" fill="#ffe07d"/>
      <path id="Path_59" data-name="Path 59" d="M126.125,100.385A7.156,7.156,0,0,0,130.7,109.6a7.382,7.382,0,0,0,9.1-5.07c1.43-4.992-.533-10.989-1.6-13.665a1.391,1.391,0,0,0-1.975-.7C133.595,91.629,127.938,95.278,126.125,100.385Z" transform="translate(-52.537 -58.355)" fill="#fff0af"/>
      <path id="Path_60" data-name="Path 60" d="M143.638,137.052a7.156,7.156,0,0,0,4.572,9.211,7.382,7.382,0,0,0,9.1-5.07c1.43-4.992-.533-10.989-1.6-13.665a1.391,1.391,0,0,0-1.975-.7c-2.628,1.466-8.284,5.115-10.1,10.221Z" transform="translate(-63.895 -82.134)" fill="#ffe07d"/>
      <path id="Path_61" data-name="Path 61" d="M161.213,173.85a7.156,7.156,0,0,0,4.572,9.211,7.382,7.382,0,0,0,9.1-5.07c1.43-4.992-.533-10.989-1.6-13.665a1.391,1.391,0,0,0-1.975-.7c-2.628,1.465-8.284,5.115-10.1,10.221Z" transform="translate(-75.292 -105.998)" fill="#fff0af"/>
      <path id="Path_62" data-name="Path 62" d="M59.873,64.572a7.155,7.155,0,0,1,4.291,9.345A7.382,7.382,0,0,1,54.5,77.81c-4.781-2.026-8.212-7.322-9.624-9.832a1.391,1.391,0,0,1,.7-1.974C48.369,64.879,54.762,62.774,59.873,64.572Z" transform="translate(0 -41.421)" fill="#ffe07d"/>
      <path id="Path_63" data-name="Path 63" d="M77.474,101.424a7.155,7.155,0,0,1,4.291,9.345,7.382,7.382,0,0,1-9.663,3.892c-4.781-2.026-8.212-7.322-9.624-9.832a1.391,1.391,0,0,1,.7-1.974c2.792-1.123,9.185-3.229,14.3-1.43Z" transform="translate(-11.414 -65.319)" fill="#ffd064"/>
      <path id="Path_64" data-name="Path 64" d="M94.9,137.907a7.155,7.155,0,0,1,4.291,9.345,7.382,7.382,0,0,1-9.663,3.892c-4.781-2.026-8.212-7.322-9.624-9.832a1.391,1.391,0,0,1,.7-1.974C83.395,138.214,89.788,136.108,94.9,137.907Z" transform="translate(-22.714 -88.979)" fill="#ffe07d"/>
      <path id="Path_65" data-name="Path 65" d="M112.412,174.574a7.155,7.155,0,0,1,4.291,9.345,7.382,7.382,0,0,1-9.663,3.892c-4.781-2.026-8.212-7.322-9.624-9.832a1.391,1.391,0,0,1,.7-1.974C100.908,174.881,107.3,172.776,112.412,174.574Z" transform="translate(-34.072 -112.758)" fill="#ffd064"/>
      <path id="Path_66" data-name="Path 66" d="M129.987,211.372a7.155,7.155,0,0,1,4.291,9.345,7.382,7.382,0,0,1-9.663,3.892c-4.781-2.026-8.212-7.322-9.624-9.832a1.391,1.391,0,0,1,.7-1.974C118.483,211.679,124.876,209.573,129.987,211.372Z" transform="translate(-45.469 -136.621)" fill="#ffe07d"/>
      <path id="Path_67" data-name="Path 67" d="M234.476,443.485a2.857,2.857,0,0,1-2.857-2.857V409.206a2.857,2.857,0,1,1,5.713,0v31.423A2.857,2.857,0,0,1,234.476,443.485Z" transform="translate(-121.219 -263.518)" fill="#ffd064"/>
    </g>
  </g>
</svg>
