<svg xmlns="http://www.w3.org/2000/svg" width="250" height="250" viewBox="0 0 250 250">
  <g id="Group_255" data-name="Group 255" transform="translate(-1391 -294)">
    <rect id="Rectangle_75" data-name="Rectangle 75" width="250" height="250" transform="translate(1391 294)" fill="none"/>
    <g id="food" transform="translate(1434.217 380.177)">
      <path id="Path_203" data-name="Path 203" d="M70.2,31.981l-17.39-1.563L57.1,18.872,45.047,6.823,37.893,8.016A46,46,0,0,0,24.381,12.49L21.9,13.766,23.059,16.3a5.76,5.76,0,0,1,.522,2.421,5.854,5.854,0,0,1-5.847,5.847,5.786,5.786,0,0,1-3.54-1.193l-2.215-1.7-1.8,2.135A46.413,46.413,0,0,0,0,45.035L46.968,58.566l52.815,2.8Z" transform="translate(0 0)" fill="#fedb41"/>
      <path id="Path_204" data-name="Path 204" d="M97.833,235.38l1.95-.688v-15.47L0,202.892v43.353l17.487,3.243.268-3.232a5.847,5.847,0,0,1,11.673.485,5.753,5.753,0,0,1-.24,1.656l-.965,3.249,31.028,4.416,11.1-9.321L80.1,259.03,99.783,261.8V247.1l-1.95-.688a5.851,5.851,0,0,1-3.18-2.706,5.768,5.768,0,0,1-.717-2.809A5.863,5.863,0,0,1,97.833,235.38Z" transform="translate(0 -157.857)" fill="#fcbf29"/>
      <g id="Group_252" data-name="Group 252" transform="translate(11.888 36.265)">
        <path id="Path_205" data-name="Path 205" d="M219.77,325.432a8.77,8.77,0,1,1,8.77-8.77A8.78,8.78,0,0,1,219.77,325.432Z" transform="translate(-181.767 -278.659)" fill="#fe9923"/>
        <path id="Path_206" data-name="Path 206" d="M312.859,397.892a11.6,11.6,0,0,0-11.1,15.168l20.848,2.967a11.676,11.676,0,0,0-9.744-18.135Z" transform="translate(-254.393 -351.119)" fill="#fe9923"/>
        <path id="Path_207" data-name="Path 207" d="M72.693,181.279a11.693,11.693,0,1,1,11.693-11.693A11.7,11.7,0,0,1,72.693,181.279Z" transform="translate(-61 -157.892)" fill="#fe9923"/>
      </g>
      <path id="Path_208" data-name="Path 208" d="M241,80.192a11.7,11.7,0,0,0,22.176,5.187,11.493,11.493,0,0,0,1.061-3.624L251.127,68.646a11.488,11.488,0,0,0-3.621,1.064A11.632,11.632,0,0,0,241,80.192Z" transform="translate(-194.032 -49.774)" fill="#fea832"/>
    </g>
    <g id="milk" transform="translate(1434.478 346)">
      <path id="Path_195" data-name="Path 195" d="M145.3,44l13.94,28.98s6.42,12.656,6.42,23.111v67.682s1.1,15.591-11.555,15.591H103.113c-12.839,0-11.555-15.591-11.555-15.591V96.091c0-10.455,6.42-23.111,6.42-23.111L111.918,44Z" transform="translate(-3.228 -23.824)" fill="#f4f5f7"/>
      <path id="Path_196" data-name="Path 196" d="M103.127,163.774V96.091c0-10.455,6.42-23.111,6.42-23.111L123.487,44H111.931L97.991,72.98s-6.42,12.656-6.42,23.111v67.682s-1.1,15.591,11.555,15.591h11.555C102.026,179.364,103.127,163.774,103.127,163.774Z" transform="translate(-3.242 -23.824)" fill="#fff"/>
      <rect id="Rectangle_71" data-name="Rectangle 71" width="73.001" height="34.3" transform="translate(89.247 77.22)" fill="#50c1e9"/>
      <rect id="Rectangle_72" data-name="Rectangle 72" width="10.088" height="34.3" transform="translate(89.247 77.22)" fill="#87d3e8"/>
      <path id="Path_197" data-name="Path 197" d="M168.007,15.021a8.611,8.611,0,0,1-8.621,8.621H125.821a8.611,8.611,0,0,1-8.621-8.621h0A8.611,8.611,0,0,1,125.821,6.4h33.566a8.611,8.611,0,0,1,8.621,8.621Z" transform="translate(-17.131 -3.465)" fill="#ffce55"/>
      <path id="Path_198" data-name="Path 198" d="M129.639,15.021A8.611,8.611,0,0,1,138.26,6.4H125.421a8.621,8.621,0,0,0,0,17.242H138.26A8.611,8.611,0,0,1,129.639,15.021Z" transform="translate(-16.915 -3.465)" fill="#ffde94"/>
      <g id="Group_251" data-name="Group 251" transform="translate(85.56)">
        <path id="Path_199" data-name="Path 199" d="M165.183,72.268c0-11.005-6.42-23.845-6.6-24.395L146.291,22.194a11.331,11.331,0,0,0,7.337-10.638A11.625,11.625,0,0,0,142.072,0H108.689A11.625,11.625,0,0,0,97.134,11.555a11.41,11.41,0,0,0,7.337,10.638L92.182,47.873c-.183.55-6.6,13.39-6.6,24.395V77.4h0V111.52h0v28.063c0,.367-.55,9.171,4.4,14.49a12.869,12.869,0,0,0,9.9,4.035h50.991c4.035,0,7.52-1.284,9.9-4.035,4.952-5.319,4.4-14.123,4.4-14.307v-67.5ZM102.637,11.555a5.794,5.794,0,0,1,5.869-5.869h33.566a5.794,5.794,0,0,1,5.869,5.869,5.794,5.794,0,0,1-5.869,5.869H108.689A5.951,5.951,0,0,1,102.637,11.555ZM91.081,72.268c0-9.538,6.053-21.827,6.053-22.01l13.206-27.33h30.081l13.206,27.33c0,.183,6.053,12.289,6.053,21.827v2.384h-68.6Zm0,8.071H159.5v28.614H91.081Zm65.665,70.25a7.745,7.745,0,0,1-5.869,2.2H99.885a7.745,7.745,0,0,1-5.869-2.2c-3.3-3.668-2.935-10.272-2.935-10.638v-25.5H159.5v25.679C159.68,140.317,160.047,146.92,156.746,150.588Z" transform="translate(-85.56)" fill="#56596a"/>
        <path id="Path_200" data-name="Path 200" d="M120.557,186.8l-2.018,6.053c-.55,2.018-1.284,4.4-1.834,6.6h0c-.367-2.2-.917-4.4-1.467-6.6L113.4,186.8h-5.5l-1.1,18.342h3.852l.367-6.97c.183-2.2.183-5.136.367-7.52h0c.367,2.384,1.1,4.952,1.651,7.153l2.018,7.153h3.3l2.2-7.153c.734-2.2,1.467-4.769,2.018-7.153h0c0,2.751,0,5.319.183,7.52l.183,6.97h4.035l-.917-18.342Z" transform="translate(-97.061 -101.143)" fill="#56596a"/>
        <rect id="Rectangle_73" data-name="Rectangle 73" width="4.219" height="18.342" transform="translate(33.217 85.657)" fill="#56596a"/>
        <path id="Path_201" data-name="Path 201" d="M179.019,186.8H174.8v18.342h11.556v-3.485h-7.337Z" transform="translate(-133.879 -101.143)" fill="#56596a"/>
        <path id="Path_202" data-name="Path 202" d="M219.874,186.8h-5.136l-4.219,6.053c-.367.734-.917,1.284-1.284,2.018h0V186.8H205.2v18.342h4.035v-6.053l1.651-2.018,4.4,7.887h4.769l-6.42-10.455Z" transform="translate(-150.339 -101.143)" fill="#56596a"/>
      </g>
    </g>
  </g>
</svg>
