<svg id="Component_21_1" data-name="Component 21 – 1" xmlns="http://www.w3.org/2000/svg" xmlns:xlink="http://www.w3.org/1999/xlink" width="250" height="250" viewBox="0 0 250 250">
  <defs>
    <linearGradient id="linear-gradient" x1="1.136" y1="1.314" x2="1.103" y2="1.299" gradientUnits="objectBoundingBox">
      <stop offset="0" stop-color="#fff" stop-opacity="0.2"/>
      <stop offset="1" stop-color="#fff" stop-opacity="0"/>
    </linearGradient>
  </defs>
  <g id="soy_1_" data-name="soy (1)" transform="translate(76.803 61.555) rotate(45)">
    <path id="Path_138" data-name="Path 138" d="M4.155,5.442A2.031,2.031,0,0,1,5.444,4.154C5.942,3.99,17.7.137,23.768.009A24.252,24.252,0,0,1,47.06,15.873a10.338,10.338,0,0,0,6.1,5.969A24.339,24.339,0,0,1,67.217,35.9,10.347,10.347,0,0,0,73.191,42,24.319,24.319,0,0,1,89.055,65.287c-.127,6.074-4.028,17.8-4.194,18.3a2.023,2.023,0,0,1-1.281,1.277c-.494.166-12.215,4.066-18.288,4.194-.174,0-.344.006-.518.006A24.323,24.323,0,0,1,42,73.191a10.338,10.338,0,0,0-6.1-5.969,24.339,24.339,0,0,1-14.058-14.06,10.347,10.347,0,0,0-5.973-6.1A24.319,24.319,0,0,1,0,23.778C.131,17.707,3.989,5.94,4.155,5.442Z" transform="translate(0 -0.001)" fill="#303c42"/>
    <path id="Path_139" data-name="Path 139" d="M34.552,60.536A14.371,14.371,0,0,1,42.9,68.99,20.3,20.3,0,0,0,54.615,80.71a14.38,14.38,0,0,1,8.456,8.345,20.113,20.113,0,0,0,19.411,13.224c4.531-.095,13.232-2.75,16.13-3.673.921-2.9,3.578-11.6,3.673-16.134a20.268,20.268,0,0,0-13.224-19.4,14.371,14.371,0,0,1-8.345-8.454A20.3,20.3,0,0,0,69,42.9a14.379,14.379,0,0,1-8.456-8.345A20.232,20.232,0,0,0,41.131,21.327c-4.531.095-13.252,2.716-16.169,3.631-.913,2.918-3.538,11.641-3.633,16.175A20.268,20.268,0,0,0,34.552,60.536Z" transform="translate(-17.275 -17.273)" fill="#d3df44"/>
    <path id="Path_140" data-name="Path 140" d="M36.578,39.967l.405-.125c-1.023,3.717-2.122,8.332-2.183,11.24a20.268,20.268,0,0,0,13.224,19.4,14.371,14.371,0,0,1,8.345,8.454,20.3,20.3,0,0,0,11.718,11.72A14.38,14.38,0,0,1,76.544,99a20.113,20.113,0,0,0,19.411,13.224c4.369-.091,12.565-2.548,15.747-3.553-.582,2.085-1.14,3.9-1.473,4.94-2.9.923-11.6,3.578-16.13,3.673a20.113,20.113,0,0,1-19.411-13.224,14.38,14.38,0,0,0-8.456-8.345A20.3,20.3,0,0,1,54.515,84a14.371,14.371,0,0,0-8.345-8.454,20.268,20.268,0,0,1-13.224-19.4C33.04,51.608,35.665,42.884,36.578,39.967Z" transform="translate(-28.892 -32.282)" opacity="0.1"/>
    <ellipse id="Ellipse_2" data-name="Ellipse 2" cx="12.145" cy="12.145" rx="12.145" ry="12.145" transform="translate(32.386 32.386)" fill="#303c42"/>
    <ellipse id="Ellipse_3" data-name="Ellipse 3" cx="8.097" cy="8.097" rx="8.097" ry="8.097" transform="translate(36.434 36.434)" fill="#ffce34"/>
    <ellipse id="Ellipse_4" data-name="Ellipse 4" cx="12.145" cy="12.145" rx="12.145" ry="12.145" transform="translate(52.627 52.627)" fill="#303c42"/>
    <ellipse id="Ellipse_5" data-name="Ellipse 5" cx="8.097" cy="8.097" rx="8.097" ry="8.097" transform="translate(56.675 56.675)" fill="#ffce34"/>
    <ellipse id="Ellipse_6" data-name="Ellipse 6" cx="12.145" cy="12.145" rx="12.145" ry="12.145" transform="translate(12.145 12.145)" fill="#303c42"/>
    <ellipse id="Ellipse_7" data-name="Ellipse 7" cx="8.097" cy="8.097" rx="8.097" ry="8.097" transform="translate(16.193 16.193)" fill="#ffce34"/>
    <path id="Path_141" data-name="Path 141" d="M306.758,123.405a8.089,8.089,0,0,0,7.809-6.072,8,8,0,0,1,.287,2.024,8.1,8.1,0,1,1-16.193,0,8,8,0,0,1,.287-2.024A8.09,8.09,0,0,0,306.758,123.405Z" transform="translate(-282.467 -95.068)" opacity="0.1"/>
    <path id="Path_142" data-name="Path 142" d="M200.094,230.069A8.089,8.089,0,0,0,207.9,224a8,8,0,0,1,.287,2.024,8.1,8.1,0,1,1-16.193,0,8,8,0,0,1,.287-2.024A8.09,8.09,0,0,0,200.094,230.069Z" transform="translate(-155.563 -181.491)" opacity="0.1"/>
    <path id="Path_143" data-name="Path 143" d="M93.431,336.732a8.089,8.089,0,0,0,7.809-6.072,8,8,0,0,1,.287,2.024,8.1,8.1,0,1,1-16.193,0,8,8,0,0,1,.287-2.024A8.09,8.09,0,0,0,93.431,336.732Z" transform="translate(-28.659 -267.914)" opacity="0.1"/>
    <path id="Path_144" data-name="Path 144" d="M4.155,5.442A2.031,2.031,0,0,1,5.444,4.154C5.942,3.99,17.7.137,23.768.009A24.252,24.252,0,0,1,47.06,15.873a10.338,10.338,0,0,0,6.1,5.969A24.339,24.339,0,0,1,67.217,35.9,10.347,10.347,0,0,0,73.191,42,24.319,24.319,0,0,1,89.055,65.287c-.127,6.074-4.028,17.8-4.194,18.3a2.023,2.023,0,0,1-1.281,1.277c-.494.166-12.215,4.066-18.288,4.194-.174,0-.344.006-.518.006A24.323,24.323,0,0,1,42,73.191a10.338,10.338,0,0,0-6.1-5.969,24.339,24.339,0,0,1-14.058-14.06,10.347,10.347,0,0,0-5.973-6.1A24.319,24.319,0,0,1,0,23.778C.131,17.707,3.989,5.94,4.155,5.442Z" transform="translate(0 -0.001)" fill="url(#linear-gradient)"/>
  </g>
  <g id="soy" transform="translate(99.544 52.999)">
    <path id="Path_128" data-name="Path 128" d="M77.152,84.263c4.8-13.181,2.572-17.929,2-19.488a1.731,1.731,0,0,1-.124-.692v-4.55l15.828-7.42,15.828,7.42v4.55a1.693,1.693,0,0,1-.124.692c-.569,1.558-2.794,6.306,2,19.488L96.1,91.682Zm0,0" transform="translate(-54.839 -37.261)" fill="#b0d3f0"/>
    <path id="Path_129" data-name="Path 129" d="M94.907,3.08,93.473,8.026a2.836,2.836,0,0,1-2.8,1.88H88.7a3.041,3.041,0,0,0-2.4,1.113L81.4,22.271H49.749l-4.9-11.252a3.041,3.041,0,0,0-2.4-1.113H40.476a2.836,2.836,0,0,1-2.8-1.88L36.247,3.08A2.583,2.583,0,0,1,39.041.014H92.113A2.584,2.584,0,0,1,94.907,3.08Zm0,0" transform="translate(-25.557)" fill="#e64c3c"/>
    <path id="Path_130" data-name="Path 130" d="M78.872,249.01c-2.152,14.839-5.762,12.366-37.417,12.366H38.586c-31.655,0-35.266,2.474-37.417-12.366s0-42.041,14.393-69.245a120.867,120.867,0,0,0,6.752-14.839H57.727a120.7,120.7,0,0,0,6.752,14.839C78.872,206.968,81.024,234.172,78.872,249.01Zm0,0" transform="translate(0 -117.924)" fill="#805333"/>
    <g id="Group_248" data-name="Group 248" transform="translate(10.333 96.424)">
      <path id="Path_131" data-name="Path 131" d="M43.78,356.017a8.656,8.656,0,0,1-6.126-14.781,8.9,8.9,0,0,1,12.252,0,8.637,8.637,0,0,1,2.357,4.395,2.473,2.473,0,0,1-4.847.988,3.7,3.7,0,0,0-1.006-1.887,3.83,3.83,0,0,0-5.258,0,3.709,3.709,0,0,0,2.628,6.339,2.473,2.473,0,1,1,0,4.946Zm0,0" transform="translate(-35.113 -338.668)" fill="#e4c05c"/>
      <path id="Path_132" data-name="Path 132" d="M44.109,399.186a8.678,8.678,0,0,1-8.485-6.924,2.475,2.475,0,1,1,4.849-.99,3.71,3.71,0,1,0,3.636-4.452,2.473,2.473,0,0,1,0-4.946,8.656,8.656,0,1,1,0,17.311Zm0,0" transform="translate(-35.442 -369.471)" fill="#e4c05c"/>
      <path id="Path_133" data-name="Path 133" d="M115.7,368.161c-6.24,0-11.129-6.519-11.129-14.838s4.889-14.839,11.129-14.839,11.129,6.519,11.129,14.839S121.942,368.161,115.7,368.161Zm0-24.73c-3.351,0-6.183,4.53-6.183,9.892s2.832,9.892,6.183,9.892,6.183-4.531,6.183-9.892S119.054,343.431,115.7,343.431Zm0,0" transform="translate(-84.779 -338.446)" fill="#e4c05c"/>
      <path id="Path_134" data-name="Path 134" d="M192.625,355.7a2.472,2.472,0,0,1-2.118-1.2l-7.42-12.365a2.473,2.473,0,0,1,4.239-2.547l5.3,8.831,5.3-8.831a2.473,2.473,0,1,1,4.239,2.547l-7.42,12.365A2.472,2.472,0,0,1,192.625,355.7Zm0,0" transform="translate(-140.681 -338.351)" fill="#e4c05c"/>
      <path id="Path_135" data-name="Path 135" d="M211.183,399.186a2.472,2.472,0,0,1-2.472-2.472V384.349a2.473,2.473,0,1,1,4.946,0v12.366A2.473,2.473,0,0,1,211.183,399.186Zm0,0" transform="translate(-159.239 -369.471)" fill="#e4c05c"/>
    </g>
    <path id="Path_136" data-name="Path 136" d="M54.974,262.81a2.473,2.473,0,0,1-2.428-2.953,67.247,67.247,0,0,1,4.985-15.412,2.474,2.474,0,1,1,4.476,2.107,62.1,62.1,0,0,0-4.61,14.265A2.472,2.472,0,0,1,54.974,262.81Zm0,0" transform="translate(-37.212 -173.766)" fill="#af8066"/>
    <path id="Path_137" data-name="Path 137" d="M89.695,200.849a2.474,2.474,0,0,1-2.212-3.578l2.474-4.947a2.475,2.475,0,0,1,4.427,2.212l-2.474,4.946A2.473,2.473,0,0,1,89.695,200.849Zm0,0" transform="translate(-62.039 -136.536)" fill="#af8066"/>
  </g>
  <path id="Icon_material-do-not-disturb-alt" data-name="Icon material-do-not-disturb-alt" d="M128,3C59.25,3,3,59.25,3,128S59.25,253,128,253s125-56.25,125-125S196.75,3,128,3ZM28,128C28,73,73,28,128,28a98.512,98.512,0,0,1,61.25,21.25l-140,140A98.512,98.512,0,0,1,28,128ZM128,228a98.512,98.512,0,0,1-61.25-21.25l140-140A98.512,98.512,0,0,1,228,128C228,183,183,228,128,228Z" transform="translate(-3 -3)" fill="#f25260"/>
</svg>
